<svg width="1397" height="257" viewBox="0 0 1397 257" fill="none" xmlns="http://www.w3.org/2000/svg">
<g id="Desktop - 1">
<g id="Vector">
<path d="M45.7783 254.112V173.579L39.0556 86.9499L64.986 158.499L91.5566 216.894H139.576L166.146 158.499L191.757 86.9499L185.354 173.579V254.112H231.132V39.1434H170.628L135.734 119.035L115.566 182.884L95.3981 119.035L60.5042 39.1434H0V254.112H45.7783Z" fill="#161616"/>
<path d="M366.594 257C430.62 257 474.477 208.552 474.477 146.307C474.477 84.383 430.62 35.9349 366.594 35.9349C302.568 35.9349 258.711 84.383 258.711 146.307C258.711 208.552 302.568 257 366.594 257ZM366.594 212.402C327.218 212.402 307.05 184.809 307.05 146.307C307.05 108.126 327.218 80.212 366.594 80.212C406.29 80.212 426.138 108.126 426.138 146.307C426.138 184.809 406.29 212.402 366.594 212.402Z" fill="#161616"/>
<path d="M547.854 254.112V162.349L544.332 109.088L563.54 140.852L641.651 254.112H685.189V39.1434H639.41V134.435L642.292 185.13L622.764 151.44L546.573 39.1434H502.076V254.112H547.854Z" fill="#161616"/>
<path d="M743.882 254.112L761.169 206.306H847.604L864.57 254.112H914.83L834.478 39.1434H775.575L695.223 254.112H743.882ZM791.581 121.281L804.386 75.7201L817.191 121.281L833.518 167.483H774.935L791.581 121.281Z" fill="#161616"/>
<path d="M970.835 254.112V173.579H987.482C1006.37 173.579 1015.97 178.713 1024.3 193.151L1060.47 254.112H1113.29L1079.36 198.284C1070.07 183.205 1061.11 172.617 1044.14 168.125C1079.04 163.954 1104.97 144.382 1104.97 106.201C1104.97 60.6402 1071.04 39.1434 1024.62 39.1434H925.057V254.112H970.835ZM1023.02 79.8912C1042.86 79.8912 1056.95 87.5915 1056.95 108.447C1056.95 128.66 1042.86 136.681 1023.02 136.681H970.835V79.8912H1023.02Z" fill="#161616"/>
<path d="M1176.54 254.112V193.793L1209.84 157.537L1267.14 254.112H1319.96L1242.17 124.168L1316.76 39.1434H1262.98L1205.03 103.955L1175.26 140.532L1176.54 100.105V39.1434H1130.76V254.112H1176.54Z" fill="#161616"/>
<path d="M1357.87 39.1434V0.641479H1367.99L1376.26 33.5L1383.26 0.641479H1396.26V39.1434H1389.26V7.57182L1380.76 39.1434H1370.76L1364.27 7.57182V39.1434H1357.87ZM1332.64 39.1434V7.05846H1321.5V0.641479H1351V7.05846H1339.17V39.1434H1332.64Z" fill="#161616"/>
</g>
</g>
</svg>
